<svg width="2500" height="908" viewBox="0 0 2500 908" fill="none" xmlns="http://www.w3.org/2000/svg">
<g clip-path="url(#clip0_8_2)">
<rect width="2500" height="908" fill="#121737"/>
<g filter="url(#filter0_f_8_2)">
<circle cx="242.5" cy="808.5" r="355.5" fill="#2E5CE5"/>
</g>
<g filter="url(#filter1_f_8_2)">
<circle cx="2133.5" cy="-61.5" r="355.5" fill="#121737"/>
</g>
<g filter="url(#filter2_f_8_2)">
<ellipse cx="1588" cy="588" rx="94" ry="72" fill="#3DD4F2"/>
</g>
<path opacity="0.5" d="M774.357 539.004L871.605 539.004M774.357 539.004C774.357 582.535 749.613 618.218 737.24 630.618M774.357 539.004L774.357 401.582M774.357 539.004L530 539.004M1776.65 722.233L1680.44 722.233M1776.65 722.233L1681.57 630.618M1776.65 722.233L1876.53 722.233M720.337 722.233L840.667 722.233M720.337 722.233L832.947 630.618M720.337 722.233L622.938 722.233M1260.55 539.004L1163.32 539.004M1260.55 539.004L1260.55 630.618M1260.55 539.004L1260.55 401.582M1260.55 539.004L1357.79 539.004M1260.55 722.233L1260.55 630.618M1260.55 722.233L1424.09 722.233M1260.55 722.233L1097.02 722.233M1455.03 539.004L1357.79 539.004M1455.03 539.004L1552.26 539.004M1455.03 539.004C1455.03 584.811 1485.97 630.618 1485.97 630.618M1455.03 539.004L1455.03 401.582M1543.42 722.233L1680.44 722.233M1543.42 722.233L1485.97 630.618M1543.42 722.233L1424.09 722.233M1066.08 539.004L968.842 539.004M1066.08 539.004L1163.32 539.004M1066.08 539.004C1066.08 584.811 1035.14 630.618 1035.14 630.618M1066.08 539.004L1066.08 401.582M977.682 722.233L1035.14 630.618M977.682 722.233L1097.02 722.233M977.682 722.233L840.667 722.233M968.842 539.004L968.842 401.582M968.842 539.004C968.842 600.08 933.483 630.618 933.483 630.618M968.842 539.004L871.605 539.004M840.667 722.233L933.483 630.618M1163.32 539.004C1163.32 584.811 1141.22 630.618 1141.22 630.618M1163.32 539.004L1163.32 401.582M1097.02 722.233L1141.22 630.618M1357.79 539.004C1357.79 584.811 1379.89 630.618 1379.89 630.618M1357.79 539.004L1357.79 401.582M1424.09 722.233L1379.89 630.618M1552.26 539.004C1552.26 600.08 1587.62 630.618 1587.62 630.618M1552.26 539.004L1552.26 401.582M1552.26 539.004L1649.53 539.004M1680.44 722.233L1587.62 630.618M737.24 630.618L832.947 630.618M737.24 630.618L622.938 722.233M737.24 630.618L530 630.618M1035.14 630.618L1141.22 630.618M1035.14 630.618L933.483 630.618M1141.22 630.618L1260.55 630.618M1260.55 630.618L1379.89 630.618M1379.89 630.618L1485.97 630.618M1485.97 630.618L1587.62 630.618M1587.62 630.618L1681.57 630.618M1066.08 126.738L1066.08 264.16M1163.32 126.738L1163.32 264.16M1260.55 126.738L1260.55 264.16M1357.79 126.738L1357.79 264.16M1455.03 126.738L1455.03 264.16M1552.26 126.738L1552.26 264.16M968.842 126.738L968.842 264.16M1260.55 401.582L1357.79 401.582M1260.55 401.582L1163.32 401.582M1260.55 401.582L1260.55 264.16M1357.79 401.582L1455.03 401.582M1357.79 401.582L1357.79 264.16M1455.03 401.582L1552.26 401.582M1455.03 401.582L1455.03 264.16M1552.26 401.582L1552.26 264.16M1552.26 401.582L1649.53 401.582M1163.32 401.582L1066.08 401.582M1163.32 401.582L1163.32 264.16M1066.08 401.582L968.842 401.582M1066.08 401.582L1066.08 264.16M968.842 401.582L968.842 264.16M968.842 401.582L871.605 401.582M774.357 401.582L871.605 401.582M774.357 401.582L774.358 264.16M774.357 401.582L530 401.582M1066.08 264.16L968.842 264.16M1066.08 264.16L1163.32 264.16M968.842 264.16L871.605 264.16M1163.32 264.16L1260.55 264.16M1260.55 264.16L1357.79 264.16M1357.79 264.16L1455.03 264.16M1455.03 264.16L1552.26 264.16M1552.26 264.16L1649.53 264.16M774.358 264.16L871.605 264.16M774.358 264.16L774.358 126.738M774.358 264.16L530 264.16M1649.53 539.004C1649.53 587.713 1670.89 620.376 1681.57 630.618M1649.53 539.004L1649.53 401.582M1649.53 539.004L1745.67 539.004M1649.53 401.582L1649.53 264.16M1649.53 401.582L1745.67 401.582M1681.57 630.618L1778.25 630.618M1649.53 264.16L1649.53 126.738M1649.53 264.16L1745.67 264.16M933.483 630.618L832.947 630.618M871.605 264.16L871.605 401.582M871.605 264.16L871.605 126.738M871.605 401.582L871.605 539.004M871.605 539.004C871.605 589.341 845.833 621.054 832.947 630.618M622.938 722.233L530 722.233M1745.67 264.16L1745.67 401.582M1745.67 264.16L1745.67 126.738M1745.67 264.16L1970 264.16M1745.67 401.582L1745.67 539.004M1745.67 401.582L1970 401.582M1745.67 539.004C1745.67 584.015 1767.39 618.835 1778.25 630.618M1745.67 539.004L1970 539.004M1778.25 630.618L1876.53 722.233M1778.25 630.618L1970 630.618M1876.53 722.233L1970 722.233" stroke="url(#paint0_linear_8_2)" stroke-opacity="0.1"/>
</g>
<defs>
<filter id="filter0_f_8_2" x="-1113" y="-547" width="2711" height="2711" filterUnits="userSpaceOnUse" color-interpolation-filters="sRGB">
<feFlood flood-opacity="0" result="BackgroundImageFix"/>
<feBlend mode="normal" in="SourceGraphic" in2="BackgroundImageFix" result="shape"/>
<feGaussianBlur stdDeviation="500" result="effect1_foregroundBlur_8_2"/>
</filter>
<filter id="filter1_f_8_2" x="778" y="-1417" width="2711" height="2711" filterUnits="userSpaceOnUse" color-interpolation-filters="sRGB">
<feFlood flood-opacity="0" result="BackgroundImageFix"/>
<feBlend mode="normal" in="SourceGraphic" in2="BackgroundImageFix" result="shape"/>
<feGaussianBlur stdDeviation="500" result="effect1_foregroundBlur_8_2"/>
</filter>
<filter id="filter2_f_8_2" x="1154" y="176" width="868" height="824" filterUnits="userSpaceOnUse" color-interpolation-filters="sRGB">
<feFlood flood-opacity="0" result="BackgroundImageFix"/>
<feBlend mode="normal" in="SourceGraphic" in2="BackgroundImageFix" result="shape"/>
<feGaussianBlur stdDeviation="170" result="effect1_foregroundBlur_8_2"/>
</filter>
<linearGradient id="paint0_linear_8_2" x1="1260.55" y1="126.738" x2="1260.55" y2="722.233" gradientUnits="userSpaceOnUse">
<stop stop-color="#DBE7FF" stop-opacity="0"/>
<stop offset="0.234375" stop-color="#DBE7FF"/>
</linearGradient>
<clipPath id="clip0_8_2">
<rect width="2500" height="908" fill="white"/>
</clipPath>
</defs>
</svg>
